<svg width="24" height="24" viewBox="0 0 24 24" fill="none" xmlns="http://www.w3.org/2000/svg">
<path fillRule="evenodd" clipRule="evenodd" d="M7.05489 6.72913C5.72365 7.91608 5 9.64106 5 11.57V16.5676H2.75V16.7V18.25V18.2703H18.2841L16.6149 16.5547V16.5676H6.88514V11.0338C6.88514 9.85722 7.43067 8.79214 8.31248 8.02165L7.05489 6.72913ZM16.6149 14.4037V11.0338C16.6149 8.68284 14.4368 6.77702 11.75 6.77702C10.9837 6.77702 10.2587 6.93206 9.61391 7.20825L8.30978 5.86789C8.83728 5.59473 9.42276 5.3852 10.0625 5.25V4.75C10.0625 3.93 10.8275 3.25 11.75 3.25C12.6725 3.25 13.4375 3.93 13.4375 4.75V5.25C16.6775 5.93 18.5 8.49 18.5 11.57V16.3412L16.6149 14.4037ZM18.7203 16.5676L20.377 18.2703H20.75V18.25V16.7V16.5676H18.7203ZM11.75 21.25C12.9875 21.25 14 20.35 14 19.25H9.5C9.5 20.35 10.5125 21.25 11.75 21.25Z" fill="#D2D2D2"/>
<path fillRule="evenodd" clipRule="evenodd" d="M2.22698 2.21246C2.52386 1.9236 2.99869 1.93011 3.28754 2.22698L21.2875 20.727C21.5764 21.0239 21.5699 21.4987 21.273 21.7875C20.9761 22.0764 20.5013 22.0699 20.2125 21.773L2.21246 3.27302C1.9236 2.97614 1.93011 2.50131 2.22698 2.21246Z" fill="#ADADAD"/>
</svg>
