<svg width="24" height="24" viewBox="0 0 24 24" fill="none" xmlns="http://www.w3.org/2000/svg">
<path d="M6.18692 7.67051C6.31199 7.46476 6.49255 7.29423 6.71009 7.17642C6.92763 7.0586 7.17432 6.99774 7.42487 7.00006L17.5757 7.00006C17.8263 6.99774 18.073 7.0586 18.2905 7.17642C18.508 7.29423 18.6886 7.46476 18.8137 7.67051C18.9357 7.86844 19 8.09356 19 8.3228C19 8.55204 18.9357 8.77716 18.8137 8.9751L13.7394 17.3279C13.6126 17.5325 13.4315 17.7022 13.2142 17.8201C12.9968 17.938 12.7507 18 12.5003 18C12.2499 18 12.0038 17.938 11.7864 17.8201C11.5691 17.7022 11.388 17.5325 11.2612 17.3279L6.18576 8.9751C6.06391 8.77707 5.9998 8.55189 6 8.32265C6.00021 8.09341 6.06472 7.86834 6.18692 7.67051Z" fill="#AFAFAF"/>
</svg>
