<svg width="24" height="24" viewBox="0 0 24 24" fill="none" xmlns="http://www.w3.org/2000/svg">
<path d="M3.60195 7.26873C3.5113 7.18289 3.40468 7.11578 3.28815 7.07123C3.17163 7.02669 3.04749 7.00558 2.92283 7.00912C2.79816 7.01265 2.67541 7.04076 2.56159 7.09183C2.44776 7.14291 2.34509 7.21595 2.25944 7.30679C2.17378 7.39763 2.10681 7.50449 2.06237 7.62127C2.01792 7.73804 1.99685 7.86245 2.00038 7.98738C2.00391 8.11231 2.03195 8.23533 2.08292 8.3494C2.13388 8.46347 2.20677 8.56636 2.29741 8.65221L10.8424 16.7399C11.0187 16.9069 11.2521 17 11.4947 17C11.7373 17 11.9706 16.9069 12.1469 16.7399L20.6929 8.65221C20.7855 8.56693 20.8603 8.46406 20.9129 8.34957C20.9655 8.23508 20.9949 8.11125 20.9994 7.98528C21.0039 7.85931 20.9833 7.7337 20.9389 7.61576C20.8945 7.49781 20.8272 7.38988 20.7409 7.29823C20.6545 7.20658 20.5508 7.13304 20.4359 7.08189C20.3209 7.03073 20.197 7.00297 20.0712 7.00023C19.9455 6.99748 19.8204 7.0198 19.7034 7.0659C19.5863 7.11199 19.4795 7.18094 19.3893 7.26873L11.4947 14.7399L3.60195 7.26873Z" fill="#6B6B6B"/>
</svg>
