<svg width="13" height="13" viewBox="0 0 13 13" fill="none" xmlns="http://www.w3.org/2000/svg">
<path d="M3.2513 8.66699H2.70964C2.56598 8.66699 2.4282 8.60992 2.32662 8.50834C2.22504 8.40676 2.16797 8.26898 2.16797 8.12533V2.70866C2.16797 2.565 2.22504 2.42722 2.32662 2.32564C2.4282 2.22406 2.56598 2.16699 2.70964 2.16699H8.1263C8.26996 2.16699 8.40774 2.22406 8.50932 2.32564C8.6109 2.42722 8.66797 2.565 8.66797 2.70866V3.25033M4.8763 10.8337H10.293C10.4366 10.8337 10.5744 10.7766 10.676 10.675C10.7776 10.5734 10.8346 10.4357 10.8346 10.292V4.87533C10.8346 4.73167 10.7776 4.59389 10.676 4.49231C10.5744 4.39073 10.4366 4.33366 10.293 4.33366H4.8763C4.73264 4.33366 4.59487 4.39073 4.49329 4.49231C4.3917 4.59389 4.33464 4.73167 4.33464 4.87533V10.292C4.33464 10.4357 4.3917 10.5734 4.49329 10.675C4.59487 10.7766 4.73264 10.8337 4.8763 10.8337Z" stroke="#6B6B6B" stroke-linejoin="round"/>
</svg>
