<svg width="16" height="12" viewBox="0 0 16 12" fill="none" xmlns="http://www.w3.org/2000/svg">
<path d="M14.7085 1.20986C14.6155 1.11613 14.5049 1.04174 14.3831 0.990969C14.2612 0.940201 14.1305 0.914062 13.9985 0.914062C13.8665 0.914062 13.7358 0.940201 13.6139 0.990969C13.492 1.04174 13.3814 1.11613 13.2885 1.20986L5.83849 8.66986L2.70849 5.52986C2.61196 5.43662 2.49802 5.36331 2.37317 5.3141C2.24831 5.2649 2.11499 5.24077 1.98081 5.24309C1.84663 5.24541 1.71422 5.27414 1.59114 5.32763C1.46806 5.38113 1.35672 5.45834 1.26348 5.55486C1.17025 5.65138 1.09693 5.76532 1.04773 5.89018C0.998524 6.01503 0.974394 6.14836 0.976715 6.28254C0.979037 6.41672 1.00776 6.54913 1.06126 6.67221C1.11475 6.79529 1.19196 6.90662 1.28848 6.99986L5.12849 10.8399C5.22145 10.9336 5.33205 11.008 5.45391 11.0588C5.57577 11.1095 5.70647 11.1357 5.83849 11.1357C5.9705 11.1357 6.1012 11.1095 6.22306 11.0588C6.34492 11.008 6.45552 10.9336 6.54849 10.8399L14.7085 2.67986C14.81 2.58622 14.891 2.47257 14.9464 2.34607C15.0018 2.21957 15.0304 2.08296 15.0304 1.94486C15.0304 1.80676 15.0018 1.67015 14.9464 1.54365C14.891 1.41715 14.81 1.3035 14.7085 1.20986Z" fill="#9E9E9E"/>
</svg>
