<svg width="64" height="64" viewBox="0 0 64 64" fill="none" xmlns="http://www.w3.org/2000/svg">
<path fill-rule="evenodd" clip-rule="evenodd" d="M21 49.4444C20.4477 49.4444 20 48.9967 20 48.4444V16C20 15.4477 20.4477 15 21 15H23.8222C24.3745 15 24.8222 15.4477 24.8222 16V48.4444C24.8222 48.9967 24.3745 49.4444 23.8222 49.4444H21Z" fill="#BABABA"/>
<path fill-rule="evenodd" clip-rule="evenodd" d="M39.6016 49.4444C39.0493 49.4444 38.6016 48.9967 38.6016 48.4444V16C38.6016 15.4477 39.0493 15 39.6016 15H42.4238C42.9761 15 43.4238 15.4477 43.4238 16V48.4444C43.4238 48.9967 42.9761 49.4444 42.4238 49.4444H39.6016Z" fill="#BABABA"/>
</svg>
