<svg width="19" height="19" viewBox="0 0 19 19" fill="none" xmlns="http://www.w3.org/2000/svg">
<path d="M15.5519 10.2748C15.5858 10.0275 15.6028 9.77181 15.6028 9.49967C15.6028 9.23579 15.5858 8.9719 15.5434 8.7245L17.2645 7.42155C17.4171 7.3061 17.4595 7.08344 17.3662 6.91851L15.7384 4.18066C15.6367 3.99924 15.4248 3.94151 15.2382 3.99924L13.212 4.79091C12.7881 4.47754 12.3388 4.21365 11.8386 4.01573L11.5334 1.92112C11.4995 1.7232 11.3299 1.58301 11.1265 1.58301H7.87094C7.66747 1.58301 7.50639 1.7232 7.47248 1.92112L7.16727 4.01573C6.66708 4.21365 6.20927 4.48579 5.79385 4.79091L3.76763 3.99924C3.58112 3.93327 3.36917 3.99924 3.26744 4.18066L1.64816 6.91851C1.54642 7.09169 1.58034 7.3061 1.74989 7.42155L3.47091 8.7245C3.42852 8.9719 3.39461 9.24403 3.39461 9.49967C3.39461 9.75532 3.41156 10.0275 3.45395 10.2748L1.73294 11.5778C1.58034 11.6933 1.53795 11.9159 1.6312 12.0808L3.25896 14.8187C3.3607 15.0001 3.57264 15.0578 3.75916 15.0001L5.78538 14.2084C6.20927 14.5218 6.6586 14.7857 7.1588 14.9836L7.464 17.0782C7.50639 17.2761 7.66747 17.4163 7.87094 17.4163H11.1265C11.3299 17.4163 11.4995 17.2761 11.5249 17.0782L11.8301 14.9836C12.3303 14.7857 12.7881 14.5218 13.2035 14.2084L15.2298 15.0001C15.4163 15.0661 15.6282 15.0001 15.73 14.8187L17.3577 12.0808C17.4595 11.8994 17.4171 11.6933 17.256 11.5778L15.5519 10.2748ZM9.4987 12.4684C7.82007 12.4684 6.44665 11.1325 6.44665 9.49967C6.44665 7.86686 7.82007 6.53092 9.4987 6.53092C11.1773 6.53092 12.5507 7.86686 12.5507 9.49967C12.5507 11.1325 11.1773 12.4684 9.4987 12.4684Z" fill="#AFAFAF"/>
</svg>
