<svg width="24" height="24" viewBox="0 0 24 24" fill="none" xmlns="http://www.w3.org/2000/svg">
<path opacity="0.2" d="M21.1654 4.38522V8.61599H2.83203V4.38522C2.83203 4.1608 2.91983 3.94558 3.07611 3.7869C3.23239 3.62821 3.44435 3.53906 3.66536 3.53906H20.332C20.553 3.53906 20.765 3.62821 20.9213 3.7869C21.0776 3.94558 21.1654 4.1608 21.1654 4.38522Z" fill="white"/>
<path d="M20.3333 2.69231H17.8333V1.84615C17.8333 1.62174 17.7455 1.40652 17.5893 1.24783C17.433 1.08915 17.221 1 17 1C16.779 1 16.567 1.08915 16.4107 1.24783C16.2545 1.40652 16.1667 1.62174 16.1667 1.84615V2.69231H7.83333V1.84615C7.83333 1.62174 7.74554 1.40652 7.58926 1.24783C7.43297 1.08915 7.22101 1 7 1C6.77899 1 6.56702 1.08915 6.41074 1.24783C6.25446 1.40652 6.16667 1.62174 6.16667 1.84615V2.69231H3.66667C3.22464 2.69231 2.80072 2.8706 2.48816 3.18797C2.17559 3.50534 2 3.93579 2 4.38462V21.3077C2 21.7565 2.17559 22.187 2.48816 22.5043C2.80072 22.8217 3.22464 23 3.66667 23H20.3333C20.7754 23 21.1993 22.8217 21.5118 22.5043C21.8244 22.187 22 21.7565 22 21.3077V4.38462C22 3.93579 21.8244 3.50534 21.5118 3.18797C21.1993 2.8706 20.7754 2.69231 20.3333 2.69231ZM6.16667 4.38462V5.23077C6.16667 5.45518 6.25446 5.67041 6.41074 5.82909C6.56702 5.98777 6.77899 6.07692 7 6.07692C7.22101 6.07692 7.43297 5.98777 7.58926 5.82909C7.74554 5.67041 7.83333 5.45518 7.83333 5.23077V4.38462H16.1667V5.23077C16.1667 5.45518 16.2545 5.67041 16.4107 5.82909C16.567 5.98777 16.779 6.07692 17 6.07692C17.221 6.07692 17.433 5.98777 17.5893 5.82909C17.7455 5.67041 17.8333 5.45518 17.8333 5.23077V4.38462H20.3333V7.76923H3.66667V4.38462H6.16667ZM20.3333 21.3077H3.66667V9.46154H20.3333V21.3077ZM10.3333 12V18.7692C10.3333 18.9936 10.2455 19.2089 10.0893 19.3676C9.93297 19.5262 9.72101 19.6154 9.5 19.6154C9.27899 19.6154 9.06702 19.5262 8.91074 19.3676C8.75446 19.2089 8.66667 18.9936 8.66667 18.7692V13.3687L8.20625 13.6035C8.00844 13.7039 7.77945 13.7204 7.56964 13.6494C7.35984 13.5784 7.1864 13.4257 7.0875 13.2248C6.9886 13.024 6.97232 12.7914 7.04226 12.5784C7.11219 12.3654 7.26261 12.1893 7.46042 12.0888L9.12708 11.2427C9.25418 11.1781 9.39543 11.1476 9.53741 11.1541C9.67938 11.1606 9.81737 11.2038 9.93825 11.2797C10.0591 11.3556 10.1589 11.4616 10.228 11.5877C10.2972 11.7138 10.3334 11.8557 10.3333 12ZM16.4958 15.2207L14.5 17.9231H16.1667C16.3877 17.9231 16.5996 18.0122 16.7559 18.1709C16.9122 18.3296 17 18.5448 17 18.7692C17 18.9936 16.9122 19.2089 16.7559 19.3676C16.5996 19.5262 16.3877 19.6154 16.1667 19.6154H12.8333C12.6786 19.6154 12.5269 19.5716 12.3952 19.489C12.2636 19.4064 12.1572 19.2882 12.088 19.1476C12.0188 19.0071 11.9895 18.8497 12.0034 18.6932C12.0173 18.5367 12.0738 18.3873 12.1667 18.2615L15.1646 14.2032C15.2328 14.111 15.2817 14.0056 15.3083 13.8936C15.335 13.7815 15.3388 13.6651 15.3196 13.5515C15.3003 13.4379 15.2584 13.3295 15.1964 13.2329C15.1344 13.1363 15.0536 13.0536 14.959 12.9899C14.8644 12.9261 14.7579 12.8827 14.6462 12.8623C14.5344 12.8418 14.4198 12.8447 14.3092 12.8709C14.1986 12.8971 14.0945 12.9459 14.0032 13.0144C13.9118 13.0829 13.8353 13.1696 13.7781 13.2692C13.725 13.3685 13.6529 13.456 13.5659 13.5265C13.479 13.5971 13.379 13.6492 13.2719 13.6799C13.1648 13.7105 13.0527 13.7191 12.9423 13.705C12.8319 13.691 12.7253 13.6547 12.629 13.5982C12.5326 13.5416 12.4484 13.4661 12.3812 13.376C12.3141 13.2859 12.2654 13.183 12.238 13.0735C12.2107 12.964 12.2052 12.85 12.2219 12.7383C12.2386 12.6266 12.2772 12.5194 12.3354 12.4231C12.6107 11.9394 13.0354 11.5614 13.5438 11.3477C14.0521 11.134 14.6157 11.0966 15.1471 11.2412C15.6785 11.3858 16.1482 11.7044 16.4831 12.1475C16.8181 12.5907 16.9998 13.1337 17 13.6923C17.0018 14.2442 16.8246 14.7812 16.4958 15.2207Z" fill="white"/>
</svg>
