<svg width="71" height="71" viewBox="0 0 71 71" fill="none" xmlns="http://www.w3.org/2000/svg">
<g filter="url(#filter0_d_244_649)">
<path d="M32 1C14.888 1 1 14.888 1 32C1 49.112 14.888 63 32 63C49.112 63 63 49.112 63 32C63 14.888 49.112 1 32 1ZM32 56.8C18.298 56.8 7.2 45.702 7.2 32C7.2 18.298 18.298 7.2 32 7.2C45.702 7.2 56.8 18.298 56.8 32C56.8 45.702 45.702 56.8 32 56.8Z" fill="#FFB800"/>
</g>
<g filter="url(#filter1_d_244_649)">
<path fill-rule="evenodd" clip-rule="evenodd" d="M21 49.4444C20.4477 49.4444 20 48.9967 20 48.4444V16C20 15.4477 20.4477 15 21 15H23.8222C24.3745 15 24.8222 15.4477 24.8222 16V48.4444C24.8222 48.9967 24.3745 49.4444 23.8222 49.4444H21Z" fill="#FFB800"/>
<path fill-rule="evenodd" clip-rule="evenodd" d="M39.6016 49.4444C39.0493 49.4444 38.6016 48.9967 38.6016 48.4444V16C38.6016 15.4477 39.0493 15 39.6016 15H42.4238C42.9761 15 43.4238 15.4477 43.4238 16V48.4444C43.4238 48.9967 42.9761 49.4444 42.4238 49.4444H39.6016Z" fill="#FFB800"/>
</g>
<defs>
<filter id="filter0_d_244_649" x="1" y="1" width="70" height="70" filterUnits="userSpaceOnUse" color-interpolation-filters="sRGB">
<feFlood flood-opacity="0" result="BackgroundImageFix"/>
<feColorMatrix in="SourceAlpha" type="matrix" values="0 0 0 0 0 0 0 0 0 0 0 0 0 0 0 0 0 0 127 0" result="hardAlpha"/>
<feOffset dx="4" dy="4"/>
<feGaussianBlur stdDeviation="2"/>
<feComposite in2="hardAlpha" operator="out"/>
<feColorMatrix type="matrix" values="0 0 0 0 0 0 0 0 0 0 0 0 0 0 0 0 0 0 0.1 0"/>
<feBlend mode="normal" in2="BackgroundImageFix" result="effect1_dropShadow_244_649"/>
<feBlend mode="normal" in="SourceGraphic" in2="effect1_dropShadow_244_649" result="shape"/>
</filter>
<filter id="filter1_d_244_649" x="20" y="15" width="31.4219" height="42.4443" filterUnits="userSpaceOnUse" color-interpolation-filters="sRGB">
<feFlood flood-opacity="0" result="BackgroundImageFix"/>
<feColorMatrix in="SourceAlpha" type="matrix" values="0 0 0 0 0 0 0 0 0 0 0 0 0 0 0 0 0 0 127 0" result="hardAlpha"/>
<feOffset dx="4" dy="4"/>
<feGaussianBlur stdDeviation="2"/>
<feComposite in2="hardAlpha" operator="out"/>
<feColorMatrix type="matrix" values="0 0 0 0 0 0 0 0 0 0 0 0 0 0 0 0 0 0 0.1 0"/>
<feBlend mode="normal" in2="BackgroundImageFix" result="effect1_dropShadow_244_649"/>
<feBlend mode="normal" in="SourceGraphic" in2="effect1_dropShadow_244_649" result="shape"/>
</filter>
</defs>
</svg>
