<svg width="24" height="24" viewBox="0 0 24 24" fill="none" xmlns="http://www.w3.org/2000/svg">
<path d="M16.7313 3.60195C16.8171 3.5113 16.8842 3.40468 16.9288 3.28815C16.9733 3.17163 16.9944 3.04749 16.9909 2.92283C16.9874 2.79816 16.9592 2.67541 16.9082 2.56159C16.8571 2.44776 16.784 2.34509 16.6932 2.25944C16.6024 2.17378 16.4955 2.10681 16.3787 2.06237C16.262 2.01792 16.1376 1.99685 16.0126 2.00038C15.8877 2.00391 15.7647 2.03195 15.6506 2.08292C15.5365 2.13388 15.4336 2.20677 15.3478 2.29741L7.26008 10.8424C7.09306 11.0187 7 11.2521 7 11.4947C7 11.7373 7.09306 11.9706 7.26008 12.1469L15.3478 20.6929C15.4331 20.7855 15.5359 20.8603 15.6504 20.9129C15.7649 20.9655 15.8887 20.9949 16.0147 20.9994C16.1407 21.0039 16.2663 20.9833 16.3842 20.9389C16.5022 20.8945 16.6101 20.8272 16.7018 20.7409C16.7934 20.6545 16.867 20.5508 16.9181 20.4359C16.9693 20.3209 16.997 20.197 16.9998 20.0712C17.0025 19.9455 16.9802 19.8204 16.9341 19.7034C16.888 19.5863 16.8191 19.4795 16.7313 19.3893L9.26013 11.4947L16.7313 3.60195Z" fill="white"/>
</svg>
