<svg width="24" height="24" viewBox="0 0 24 24" fill="none" xmlns="http://www.w3.org/2000/svg">
<path fill-rule="evenodd" clip-rule="evenodd" d="M6.73415 5.07188C7.82421 4.311 9.11922 4.05859 10.0119 4.05859C10.5215 4.05859 10.9347 4.40905 10.9347 4.84136C10.9347 5.27368 10.5215 5.62414 10.0119 5.62414C9.46915 5.62414 8.61102 5.78921 7.9068 6.28076C7.24035 6.74596 6.6284 7.56012 6.6284 9.01614V9.02593C6.6284 10.0612 6.6284 10.7837 6.61866 11.2955C6.60914 11.7967 6.59023 12.1454 6.53894 12.4064C6.47689 12.7222 6.36603 12.919 6.22231 13.1087C6.1969 13.1422 6.17347 13.1721 6.1509 13.2009C6.12875 13.2291 6.14323 13.2706 6.17787 13.2801C6.42247 13.3467 6.71536 13.4623 6.9733 13.6811C7.33194 13.9853 7.45027 14.3828 7.51145 14.6251C7.53872 14.733 7.56264 14.8489 7.58352 14.95C7.58818 14.9726 7.59268 14.9944 7.59703 15.0152C7.6228 15.1384 7.6471 15.2467 7.67738 15.3494C7.73782 15.5545 7.81141 15.6978 7.91144 15.8058C8.00225 15.9038 8.15361 16.0151 8.4581 16.1012C8.88687 16.2225 9.16712 16.2817 9.35089 16.3188C9.36515 16.3217 9.38045 16.3248 9.39643 16.328C9.46878 16.3424 9.55499 16.3596 9.62205 16.376C9.62253 16.3761 9.62299 16.3763 9.62347 16.3764C9.62481 16.3767 9.62778 16.3774 9.62985 16.3779C9.68962 16.3922 9.9292 16.4495 10.1261 16.6165C10.4271 16.8719 10.4288 17.1782 10.4119 17.3168C10.4013 17.4033 10.3696 17.5115 10.3639 17.5307L10.3631 17.5336C10.3454 17.5986 10.3194 17.7009 10.3194 17.8875V18.3212C10.3194 18.6429 10.6188 18.8808 10.9321 18.8083L14.8536 17.9011C15.0803 17.8487 15.2409 17.6467 15.2409 17.414V16.8438C15.2409 16.4358 15.3106 15.8085 15.5271 15.2064C15.7305 14.6408 16.1369 13.8926 16.9814 13.5345C16.9916 13.5284 17.0542 13.491 17.1541 13.3855C17.2639 13.2697 17.3896 13.1022 17.5152 12.8823C17.7661 12.4428 17.9895 11.8411 18.0932 11.1369C18.3 9.73376 18.0254 7.98166 16.6431 6.34003C16.3469 5.98825 16.443 5.49937 16.8577 5.24809C17.2724 4.99682 17.8487 5.0783 18.1449 5.43008C19.8385 7.44139 20.1792 9.60314 19.9245 11.3311C19.7976 12.1924 19.5211 12.9606 19.1761 13.5648C18.8559 14.1256 18.3972 14.6843 17.8067 14.9347C17.6669 14.9941 17.458 15.2026 17.2923 15.6633C17.1398 16.0876 17.0864 16.5561 17.0864 16.8438V18.6097C17.0864 18.8425 16.9259 19.0444 16.6991 19.0969L9.08659 20.858C8.77321 20.9305 8.47389 20.6925 8.47389 20.3709V17.8875C8.47389 17.8042 8.41848 17.7302 8.33766 17.71C8.20159 17.676 8.04784 17.6355 7.8745 17.5865C7.2562 17.4116 6.79237 17.1316 6.46025 16.773C6.13734 16.4244 5.98025 16.0458 5.88692 15.7291C5.84031 15.5709 5.80695 15.4182 5.77986 15.2886C5.77386 15.26 5.76826 15.2329 5.76294 15.2072C5.74254 15.1086 5.72615 15.0294 5.70686 14.9531C5.69906 14.9222 5.69165 14.8959 5.68483 14.8736C5.66673 14.8145 5.61916 14.7704 5.55872 14.7575C5.50056 14.7452 5.43618 14.7353 5.34338 14.7218C5.33685 14.7209 5.32999 14.7199 5.32283 14.7188C5.24401 14.7075 5.12899 14.6909 5.02043 14.6679C4.83046 14.6276 4.24949 14.4882 4.05468 13.9511C3.9707 13.7196 3.9971 13.501 4.04321 13.3347C4.08977 13.1669 4.17089 13.0007 4.26509 12.8409C4.4168 12.5835 4.5514 12.4128 4.62934 12.314C4.64536 12.2937 4.65899 12.2765 4.66988 12.2621C4.67308 12.2579 4.67599 12.2541 4.67864 12.2507C4.70029 12.2228 4.70529 12.2163 4.71851 12.149C4.74412 12.0186 4.76366 11.7802 4.77336 11.2703C4.78282 10.7727 4.78285 10.063 4.78285 9.01614C4.78285 7.13234 5.60632 5.85912 6.73415 5.07188Z" fill="#FFB800"/>
<path d="M11.0073 7.56109C10.9354 7.56109 10.887 7.48762 10.9154 7.42162L12.7887 3.06053C12.8044 3.0238 12.8406 3 12.8805 3H14.626C14.6968 3 14.7452 3.07151 14.7188 3.13721L13.5227 6.12071C13.4964 6.1864 13.5448 6.25792 13.6155 6.25792H15.2463C15.3248 6.25792 15.3727 6.3444 15.331 6.41101L12.4275 11.0461C12.3695 11.1388 12.2261 11.0844 12.2441 10.9765L12.7952 7.67756C12.8054 7.6166 12.7584 7.56109 12.6966 7.56109H11.0073Z" fill="#FFB800"/>
</svg>
