<svg width="10" height="19" viewBox="0 0 10 19" fill="none" xmlns="http://www.w3.org/2000/svg">
<path d="M0.26873 17.3981C0.182888 17.4887 0.11578 17.5953 0.0712348 17.7118C0.0266906 17.8284 0.00558195 17.9525 0.00911625 18.0772C0.0126496 18.2018 0.0407572 18.3246 0.0918322 18.4384C0.142907 18.5522 0.21595 18.6549 0.30679 18.7406C0.397631 18.8262 0.50449 18.8932 0.621265 18.9376C0.738041 18.9821 0.862447 19.0031 0.98738 18.9996C1.11231 18.9961 1.23533 18.968 1.3494 18.9171C1.46347 18.8661 1.56636 18.7932 1.65221 18.7026L9.73992 10.1576C9.90694 9.98132 10 9.74793 10 9.50534C10 9.26274 9.90694 9.02935 9.73992 8.85307L1.65221 0.307134C1.56693 0.214505 1.46406 0.139707 1.34957 0.087085C1.23508 0.0344612 1.11125 0.00506514 0.985279 0.000598119C0.859306 -0.00386699 0.7337 0.0166885 0.615756 0.0610706C0.497811 0.105453 0.38988 0.172776 0.298231 0.259133C0.206583 0.345489 0.133043 0.449155 0.081885 0.564111C0.0307271 0.679067 0.00296943 0.80302 0.00022474 0.928771C-0.00251995 1.05452 0.0198027 1.17956 0.0658976 1.29663C0.111992 1.4137 0.180938 1.52046 0.268732 1.61072L7.73987 9.50534L0.26873 17.3981Z" fill="#FFB800"/>
</svg>
