<svg width="71" height="71" viewBox="0 0 71 71" fill="none" xmlns="http://www.w3.org/2000/svg">
<g filter="url(#filter0_d_244_654)">
<path d="M46.9361 19.0101C46.546 18.6172 45.9109 18.6161 45.5194 19.0076L26.5061 38.0209C26.116 38.411 25.4836 38.4115 25.0929 38.0219L15.3781 28.3341C14.9874 27.9445 14.355 27.945 13.9649 28.3351L11.0071 31.2929C10.6166 31.6834 10.6166 32.3166 11.0071 32.7071L25.0929 46.7929C25.4834 47.1834 26.1166 47.1834 26.5071 46.7929L49.8954 23.4046C50.2849 23.0151 50.286 22.3838 49.8979 21.9929L46.9361 19.0101ZM32 1C14.888 1 1 14.888 1 32C1 49.112 14.888 63 32 63C49.112 63 63 49.112 63 32C63 14.888 49.112 1 32 1ZM32 56.8C18.298 56.8 7.2 45.702 7.2 32C7.2 18.298 18.298 7.2 32 7.2C45.702 7.2 56.8 18.298 56.8 32C56.8 45.702 45.702 56.8 32 56.8Z" fill="#FFB800"/>
</g>
<defs>
<filter id="filter0_d_244_654" x="1" y="1" width="70" height="70" filterUnits="userSpaceOnUse" color-interpolation-filters="sRGB">
<feFlood flood-opacity="0" result="BackgroundImageFix"/>
<feColorMatrix in="SourceAlpha" type="matrix" values="0 0 0 0 0 0 0 0 0 0 0 0 0 0 0 0 0 0 127 0" result="hardAlpha"/>
<feOffset dx="4" dy="4"/>
<feGaussianBlur stdDeviation="2"/>
<feComposite in2="hardAlpha" operator="out"/>
<feColorMatrix type="matrix" values="0 0 0 0 0 0 0 0 0 0 0 0 0 0 0 0 0 0 0.1 0"/>
<feBlend mode="normal" in2="BackgroundImageFix" result="effect1_dropShadow_244_654"/>
<feBlend mode="normal" in="SourceGraphic" in2="effect1_dropShadow_244_654" result="shape"/>
</filter>
</defs>
</svg>
