<svg width="24" height="24" viewBox="0 0 24 24" fill="none" xmlns="http://www.w3.org/2000/svg">
<g clip-path="url(#clip0_354_1568)">
<path d="M16.6491 1H7.34936C3.84288 1 1 3.84288 1 7.34936V16.6491C1 20.1556 3.84288 22.9984 7.34936 22.9984H16.6491C20.1556 22.9984 22.9984 20.1556 22.9984 16.6491V7.34936C23 3.84288 20.1571 1 16.6491 1ZM20.9734 16.8126C20.9734 19.1399 19.087 21.0279 16.7581 21.0279H7.24032C4.91305 21.0279 3.02507 19.1415 3.02507 16.8126V7.29484C3.02507 4.96757 4.91149 3.07959 7.24032 3.07959H16.7581C19.0854 3.07959 20.9734 4.96601 20.9734 7.29484V16.8126Z" fill="#FFB800"/>
<path d="M12.0005 6.3457C8.84767 6.3457 6.29297 8.90196 6.29297 12.0533C6.29297 15.2046 8.84922 17.7608 12.0005 17.7608C15.1519 17.7608 17.7081 15.2046 17.7081 12.0533C17.7081 8.90196 15.1519 6.3457 12.0005 6.3457ZM12.0005 15.7545C9.95678 15.7545 8.3009 14.097 8.3009 12.0548C8.3009 10.0126 9.95834 8.35519 12.0005 8.35519C14.0427 8.35519 15.7002 10.0126 15.7002 12.0548C15.7002 14.097 14.0427 15.7545 12.0005 15.7545Z" fill="#FFB800"/>
<path d="M17.8967 7.46043C18.6314 7.46043 19.227 6.86483 19.227 6.13012C19.227 5.39541 18.6314 4.7998 17.8967 4.7998C17.162 4.7998 16.5664 5.39541 16.5664 6.13012C16.5664 6.86483 17.162 7.46043 17.8967 7.46043Z" fill="#FFB800"/>
</g>
<defs>
<clipPath id="clip0_354_1568">
<rect width="22" height="22" fill="white" transform="translate(1 1)"/>
</clipPath>
</defs>
</svg>
