<svg width="8" height="16" viewBox="0 0 8 16" fill="none" xmlns="http://www.w3.org/2000/svg">
<path d="M0.329493 14.2346C0.261829 14.3062 0.208932 14.3904 0.17382 14.4824C0.138709 14.5745 0.12207 14.6725 0.124856 14.771C0.127642 14.8695 0.149797 14.9665 0.190056 15.0564C0.230315 15.1463 0.28789 15.2274 0.359493 15.2951C0.431096 15.3627 0.515326 15.4156 0.607373 15.4507C0.699419 15.4858 0.79748 15.5025 0.895956 15.4997C0.994433 15.4969 1.0914 15.4748 1.18131 15.4345C1.27123 15.3942 1.35233 15.3367 1.41999 15.2651L7.79499 8.51506C7.92665 8.37581 8 8.19145 8 7.99981C8 7.80818 7.92665 7.62382 7.79499 7.48456L1.41999 0.733812C1.35278 0.660642 1.27169 0.601556 1.18145 0.559987C1.0912 0.518418 0.993595 0.495196 0.894299 0.491669C0.795003 0.488141 0.695996 0.504378 0.603028 0.539438C0.510061 0.574497 0.424986 0.627678 0.352745 0.695894C0.280505 0.764111 0.222538 0.846001 0.182214 0.936808C0.14189 1.02762 0.12001 1.12553 0.117846 1.22487C0.115684 1.3242 0.133279 1.42298 0.169612 1.51545C0.205945 1.60793 0.260291 1.69227 0.329493 1.76356L6.21849 7.99981L0.329493 14.2346Z" fill="#ADADAD"/>
</svg>
