<svg width="64" height="64" viewBox="0 0 64 64" fill="none" xmlns="http://www.w3.org/2000/svg">
<path fill-rule="evenodd" clip-rule="evenodd" d="M42.1289 49.4444C41.5766 49.4444 41.1289 48.9967 41.1289 48.4444V16C41.1289 15.4477 41.5766 15 42.1289 15H44.5543C45.1066 15 45.5543 15.4477 45.5543 16V48.4444C45.5543 48.9967 45.1066 49.4444 44.5543 49.4444H42.1289Z" fill="#BABABA"/>
<path fill-rule="evenodd" clip-rule="evenodd" d="M31.1025 32.0705C31.4825 31.6669 31.4617 31.0312 31.0561 30.6534L18.7879 19.2236C18.4038 18.8657 18.3618 18.2716 18.6919 17.8633L20.3321 15.8343C20.6966 15.3833 21.3671 15.336 21.7914 15.7313L37.5632 30.4253C37.9688 30.8031 37.9896 31.4388 37.6096 31.8424L21.8483 48.5824C21.4506 49.0048 20.7781 49.0012 20.3849 48.5746L18.6312 46.6716C18.2756 46.2857 18.2788 45.6905 18.6385 45.3084L31.1025 32.0705Z" fill="#BABABA"/>
</svg>
