<svg width="24" height="24" viewBox="0 0 24 24" fill="none" xmlns="http://www.w3.org/2000/svg">
<circle cx="12" cy="12" r="6.5" stroke="#FFB800"/>
<path d="M11.4531 13.2188C11.4557 12.9062 11.4844 12.6536 11.5391 12.4609C11.5938 12.2656 11.6719 12.1094 11.7734 11.9922C11.8776 11.875 12.0156 11.763 12.1875 11.6562C12.3776 11.5312 12.5234 11.4049 12.625 11.2773C12.7292 11.1497 12.7812 11.0026 12.7812 10.8359C12.7812 10.7083 12.7513 10.5964 12.6914 10.5C12.6315 10.401 12.5495 10.3242 12.4453 10.2695C12.3411 10.2148 12.2266 10.1875 12.1016 10.1875C11.9766 10.1875 11.8594 10.2148 11.75 10.2695C11.6432 10.3242 11.556 10.4049 11.4883 10.5117C11.4232 10.6159 11.388 10.7422 11.3828 10.8906H10.2734C10.2812 10.5365 10.3659 10.2383 10.5273 9.99609C10.6914 9.7513 10.9102 9.56901 11.1836 9.44922C11.4596 9.32682 11.7682 9.26562 12.1094 9.26562C12.4714 9.26562 12.793 9.32682 13.0742 9.44922C13.3555 9.57161 13.5742 9.7487 13.7305 9.98047C13.8893 10.2096 13.9688 10.4818 13.9688 10.7969C13.9688 11.1042 13.8958 11.3672 13.75 11.5859C13.6068 11.8047 13.3984 11.9948 13.125 12.1562C12.9714 12.25 12.849 12.3438 12.7578 12.4375C12.6693 12.5286 12.6016 12.6367 12.5547 12.7617C12.5104 12.8867 12.487 13.0391 12.4844 13.2188V13.3047H11.4531V13.2188ZM11.9922 15.0703C11.8724 15.0703 11.7617 15.0404 11.6602 14.9805C11.5586 14.9206 11.4779 14.8411 11.418 14.7422C11.3607 14.6406 11.3333 14.5312 11.3359 14.4141C11.3333 14.2969 11.3607 14.1888 11.418 14.0898C11.4779 13.9909 11.5586 13.9128 11.6602 13.8555C11.7617 13.7956 11.8724 13.7656 11.9922 13.7656C12.1042 13.7656 12.2096 13.7956 12.3086 13.8555C12.4102 13.9128 12.4909 13.9909 12.5508 14.0898C12.6107 14.1888 12.6406 14.2969 12.6406 14.4141C12.6406 14.5312 12.6107 14.6406 12.5508 14.7422C12.4909 14.8411 12.4102 14.9206 12.3086 14.9805C12.2096 15.0404 12.1042 15.0703 11.9922 15.0703Z" fill="#FFB800"/>
</svg>
