<svg width="100" height="75" viewBox="0 0 100 75" fill="none" xmlns="http://www.w3.org/2000/svg">
<g filter="url(#filter0_d_175_2557)">
<ellipse cx="49.7232" cy="16.629" rx="16.8599" ry="10.629" fill="#BBA885"/>
<path d="M64.4705 19.6063C65.2443 19.7625 66.0504 19.389 66.2804 18.6339C66.7195 17.1925 66.6817 15.7047 66.1607 14.2648C65.4889 12.4085 64.0385 10.7 61.961 9.31791C59.8836 7.93584 57.2554 6.93095 54.3512 6.40829C51.9429 5.97487 49.4181 5.88626 46.96 6.14371C46.1865 6.22473 45.7373 7.03429 46.0356 7.75252C46.2507 8.27012 46.7934 8.56774 47.3501 8.50312C49.3315 8.27313 51.375 8.33378 53.3207 8.68394C55.5783 9.09023 57.6214 9.87138 59.2363 10.9457C60.8512 12.0201 61.9786 13.3482 62.5009 14.7912C62.7566 15.4981 62.8626 16.2197 62.82 16.9378C62.7512 18.0976 63.3315 19.3763 64.4705 19.6063Z" fill="#AD9B79"/>
<path d="M42.3945 15.5294C42.3945 13.5052 44.0355 11.8643 46.0597 11.8643H53.3901C55.4143 11.8643 57.0553 13.5052 57.0553 15.5294C57.0553 17.5537 55.4143 19.1946 53.3901 19.1946H46.0597C44.0355 19.1946 42.3945 17.5537 42.3945 15.5294Z" fill="#DEFFF7"/>
<path fill-rule="evenodd" clip-rule="evenodd" d="M27.7344 56.3809C27.7344 55.2763 28.6298 54.3809 29.7344 54.3809H69.7166C70.8212 54.3809 71.7166 55.2763 71.7166 56.3809V60.4443C71.7166 60.6295 71.6914 60.8089 71.6443 60.9791C71.6911 61.1488 71.7161 61.3275 71.7161 61.512V67.7746C71.7161 68.8791 70.8207 69.7746 69.7161 69.7746H66.3857C65.2811 69.7746 64.3857 68.8791 64.3857 67.7746V62.4443H35.0648V67.7746C35.0648 68.8791 34.1693 69.7746 33.0648 69.7746H29.7344C28.6298 69.7746 27.7344 68.8791 27.7344 67.7746V61.512C27.7344 61.3271 27.7595 61.1481 27.8064 60.9782C27.7595 60.8082 27.7344 60.6292 27.7344 60.4443V56.3809Z" fill="#BBA885"/>
<path fill-rule="evenodd" clip-rule="evenodd" d="M29.7344 54.3809C28.6298 54.3809 27.7344 55.2763 27.7344 56.3809V57.8786C27.7344 58.9832 28.6298 59.8786 29.7344 59.8786H68.0508V67.9423C68.0508 68.9544 68.8713 69.7749 69.8834 69.7749C70.8956 69.7749 71.716 68.9544 71.716 67.9423V57.9281C71.7164 57.9116 71.7166 57.8952 71.7166 57.8786V56.3809C71.7166 55.2763 70.8212 54.3809 69.7166 54.3809H29.7344Z" fill="#AD9B79"/>
<path d="M32.1328 21.3937C32.1328 19.3695 33.7738 17.7285 35.798 17.7285H63.6534C65.6777 17.7285 67.3186 19.3695 67.3186 21.3937C67.3186 23.4179 65.6777 25.0589 63.6534 25.0589H35.798C33.7738 25.0589 32.1328 23.4179 32.1328 21.3937Z" fill="#FFF1A5"/>
<path d="M32.1328 22.1262C32.1328 21.3165 32.7892 20.6602 33.5989 20.6602H65.8525C66.6622 20.6602 67.3186 21.3165 67.3186 22.1262C67.3186 22.9359 66.6622 23.5923 65.8525 23.5923H33.5989C32.7892 23.5923 32.1328 22.9359 32.1328 22.1262Z" fill="#EADC94"/>
<path d="M31.8773 23.8323C32.0232 22.8524 32.8647 22.127 33.8555 22.127H65.5929C66.5837 22.127 67.4251 22.8524 67.5711 23.8323L72.1066 54.2851C72.2866 55.4937 71.3503 56.5797 70.1284 56.5797H29.3199C28.098 56.5797 27.1618 55.4937 27.3418 54.2851L31.8773 23.8323Z" fill="#88D5DF"/>
<path d="M56.6445 24.0844C56.6677 22.9967 57.5561 22.127 58.6441 22.127H65.591C66.5818 22.127 67.4232 22.8524 67.5692 23.8323L72.1047 54.2851C72.2847 55.4937 71.3484 56.5797 70.1265 56.5797H57.9961C56.8749 56.5797 55.9727 55.6582 55.9966 54.5372L56.6445 24.0844Z" fill="#7CCAD5"/>
</g>
<defs>
<filter id="filter0_d_175_2557" x="25.3203" y="6" width="48.8086" height="67.7754" filterUnits="userSpaceOnUse" color-interpolation-filters="sRGB">
<feFlood flood-opacity="0" result="BackgroundImageFix"/>
<feColorMatrix in="SourceAlpha" type="matrix" values="0 0 0 0 0 0 0 0 0 0 0 0 0 0 0 0 0 0 127 0" result="hardAlpha"/>
<feOffset dy="2"/>
<feGaussianBlur stdDeviation="1"/>
<feComposite in2="hardAlpha" operator="out"/>
<feColorMatrix type="matrix" values="0 0 0 0 0 0 0 0 0 0 0 0 0 0 0 0 0 0 0.05 0"/>
<feBlend mode="normal" in2="BackgroundImageFix" result="effect1_dropShadow_175_2557"/>
<feBlend mode="normal" in="SourceGraphic" in2="effect1_dropShadow_175_2557" result="shape"/>
</filter>
</defs>
</svg>
