<svg width="100" height="75" viewBox="0 0 100 75" fill="none" xmlns="http://www.w3.org/2000/svg">
<g filter="url(#filter0_d_175_2620)">
<path d="M28.3398 11C28.3398 9.89543 29.2353 9 30.3398 9H53.6007C54.7053 9 55.6007 9.89543 55.6007 11V16.4348H28.3398V11Z" fill="#C0F0FF"/>
<path d="M28.3398 11C28.3398 9.89543 29.2353 9 30.3398 9H33.2964V16.4348H28.3398V11Z" fill="#B0DAE8"/>
<rect x="24" y="22.6309" width="35.9348" height="43.3696" rx="5" fill="#FFEBC2"/>
<path fill-rule="evenodd" clip-rule="evenodd" d="M29 22.6299C26.2386 22.6299 24 24.8685 24 27.6299V60.9994C24 63.7609 26.2386 65.9994 29 65.9994H35.1958C32.4344 65.9994 30.1958 63.7609 30.1958 60.9994V27.6299C30.1958 24.8685 32.4344 22.6299 35.1958 22.6299H29ZM54.9348 65.9994H54.9349C54.9564 65.9994 54.9779 65.9993 54.9994 65.999C54.9779 65.9993 54.9564 65.9994 54.9348 65.9994ZM55.9425 65.8979C58.2209 65.4316 59.9348 63.4157 59.9348 60.9994V27.6299C59.9348 24.8685 57.6963 22.63 54.9349 22.6299" fill="#E4C993"/>
<rect x="26.4805" y="16.4355" width="30.9783" height="3.71739" rx="1.8587" fill="#B0DAE8"/>
<path d="M26.4805 18.2942C26.4805 17.2677 27.3126 16.4355 28.3392 16.4355H33.2957V20.1529H28.3392C27.3126 20.1529 26.4805 19.3208 26.4805 18.2942Z" fill="#94BCC8"/>
<rect x="28.3398" y="20.1523" width="27.2609" height="2.47826" fill="#E9CD96"/>
<rect x="28.3398" y="20.1523" width="4.95652" height="2.47826" fill="#C9B181"/>
<rect x="34.5352" y="35.0215" width="21.7015" height="22.3043" rx="4" fill="#FFF9EC"/>
<g filter="url(#filter1_d_175_2620)">
<path d="M41.0251 53.0907C39.1495 52.0078 38.5068 49.6093 39.5897 47.7336L41.7956 43.9129L48.5881 47.8345L46.3822 51.6553C45.2993 53.531 42.9008 54.1736 41.0251 53.0907Z" fill="#CAE5FF"/>
<path d="M41.7969 43.9131L44.0028 40.0923C45.0857 38.2166 47.4842 37.574 49.3599 38.6569C51.2355 39.7398 51.8782 42.1383 50.7953 44.014L48.5894 47.8347L41.7969 43.9131Z" fill="#85C484"/>
<path fill-rule="evenodd" clip-rule="evenodd" d="M39.5983 51.6793C39.9304 52.2452 40.4094 52.7354 41.0182 53.0869C42.8939 54.1698 45.2924 53.5272 46.3753 51.6515L48.5812 47.8307L46.8498 46.8311C46.8496 46.8315 46.8494 46.8318 46.8492 46.8322L44.7658 50.4407L44.6433 50.653C44.1126 51.5721 42.9374 51.887 42.0183 51.3564C41.2144 50.8923 40.2223 51.0496 39.5983 51.6793Z" fill="#B7D8F8"/>
<path fill-rule="evenodd" clip-rule="evenodd" d="M47.4238 38.1274C48.0802 38.132 48.7444 38.3017 49.3535 38.6534C51.2292 39.7363 51.8718 42.1347 50.7889 44.0104L48.583 47.8312L46.8516 46.8316L49.0569 43.012C49.5875 42.0929 49.2726 40.9176 48.3535 40.387C47.5489 39.9224 47.1892 38.9833 47.4238 38.1274Z" fill="#78AB77"/>
</g>
<g filter="url(#filter2_d_175_2620)">
<path d="M51.8789 61.9734C51.8789 59.7493 53.6819 57.9463 55.9061 57.9463H60.2124V66.0006H55.9061C53.6819 66.0006 51.8789 64.1976 51.8789 61.9734Z" fill="#CAFFD2"/>
<path d="M60.2148 57.9463H64.5212C66.7453 57.9463 68.5483 59.7493 68.5483 61.9734C68.5483 64.1976 66.7453 66.0006 64.5212 66.0006H60.2148V57.9463Z" fill="#84B4C4"/>
<path fill-rule="evenodd" clip-rule="evenodd" d="M52.375 60.0273C52.0588 60.6023 51.8789 61.2628 51.8789 61.9654C51.8789 64.1895 53.6819 65.9925 55.9061 65.9925H60.2124V63.9925H56.0457H55.9061C54.7865 63.9925 53.8789 63.0849 53.8789 61.9653C53.8789 61.032 53.2396 60.248 52.375 60.0273Z" fill="#B4E6BB"/>
<path fill-rule="evenodd" clip-rule="evenodd" d="M68.0522 60.0273C68.3684 60.6023 68.5483 61.2628 68.5483 61.9654C68.5483 64.1895 66.7453 65.9925 64.5212 65.9925H60.2148V63.9925H64.5212C65.6407 63.9925 66.5483 63.0849 66.5483 61.9653C66.5483 61.032 67.1876 60.248 68.0522 60.0273Z" fill="#6C96A3"/>
</g>
<g filter="url(#filter3_d_175_2620)">
<path d="M59.4747 53.3763C60.5868 51.4501 63.0497 50.7902 64.9759 51.9022L68.7053 54.0554L64.6781 61.0307L60.9487 58.8775C59.0226 57.7654 58.3626 55.3024 59.4747 53.3763Z" fill="#9273ED"/>
<path d="M68.7031 54.0557L72.4325 56.2088C74.3587 57.3209 75.0186 59.7839 73.9066 61.71C72.7945 63.6362 70.3315 64.2961 68.4054 63.1841L64.676 61.0309L68.7031 54.0557Z" fill="#FFDFDF"/>
<path fill-rule="evenodd" clip-rule="evenodd" d="M60.8711 51.9385C60.3097 52.2783 59.8237 52.7604 59.4724 53.3688C58.3603 55.295 59.0203 57.758 60.9464 58.87L64.6758 61.0232L65.6757 59.2913L62.0681 57.2084L61.9472 57.1386C60.9776 56.5788 60.6454 55.3391 61.2052 54.3695C61.672 53.5609 61.5101 52.5619 60.8711 51.9385Z" fill="#7662B1"/>
<path fill-rule="evenodd" clip-rule="evenodd" d="M74.4516 59.7772C74.4379 60.4331 74.2635 61.0949 73.9123 61.7032C72.8002 63.6293 70.3372 64.2893 68.4111 63.1772L64.6817 61.024L65.6816 59.2921C65.6819 59.2923 65.6822 59.2925 65.6825 59.2926L69.4118 61.4458C70.3814 62.0056 71.6212 61.6734 72.181 60.7038C72.6475 59.8958 73.5927 59.5364 74.4516 59.7772Z" fill="#E8C4C4"/>
</g>
</g>
<defs>
<filter id="filter0_d_175_2620" x="22" y="9" width="54.4531" height="61.001" filterUnits="userSpaceOnUse" color-interpolation-filters="sRGB">
<feFlood flood-opacity="0" result="BackgroundImageFix"/>
<feColorMatrix in="SourceAlpha" type="matrix" values="0 0 0 0 0 0 0 0 0 0 0 0 0 0 0 0 0 0 127 0" result="hardAlpha"/>
<feOffset dy="2"/>
<feGaussianBlur stdDeviation="1"/>
<feComposite in2="hardAlpha" operator="out"/>
<feColorMatrix type="matrix" values="0 0 0 0 0 0 0 0 0 0 0 0 0 0 0 0 0 0 0.05 0"/>
<feBlend mode="normal" in2="BackgroundImageFix" result="effect1_dropShadow_175_2620"/>
<feBlend mode="normal" in="SourceGraphic" in2="effect1_dropShadow_175_2620" result="shape"/>
</filter>
<filter id="filter1_d_175_2620" x="37.0625" y="38.127" width="16.2578" height="19.4902" filterUnits="userSpaceOnUse" color-interpolation-filters="sRGB">
<feFlood flood-opacity="0" result="BackgroundImageFix"/>
<feColorMatrix in="SourceAlpha" type="matrix" values="0 0 0 0 0 0 0 0 0 0 0 0 0 0 0 0 0 0 127 0" result="hardAlpha"/>
<feOffset dy="2"/>
<feGaussianBlur stdDeviation="1"/>
<feComposite in2="hardAlpha" operator="out"/>
<feColorMatrix type="matrix" values="0 0 0 0 0 0 0 0 0 0 0 0 0 0 0 0 0 0 0.05 0"/>
<feBlend mode="normal" in2="BackgroundImageFix" result="effect1_dropShadow_175_2620"/>
<feBlend mode="normal" in="SourceGraphic" in2="effect1_dropShadow_175_2620" result="shape"/>
</filter>
<filter id="filter2_d_175_2620" x="49.8789" y="57.9463" width="20.668" height="12.0547" filterUnits="userSpaceOnUse" color-interpolation-filters="sRGB">
<feFlood flood-opacity="0" result="BackgroundImageFix"/>
<feColorMatrix in="SourceAlpha" type="matrix" values="0 0 0 0 0 0 0 0 0 0 0 0 0 0 0 0 0 0 127 0" result="hardAlpha"/>
<feOffset dy="2"/>
<feGaussianBlur stdDeviation="1"/>
<feComposite in2="hardAlpha" operator="out"/>
<feColorMatrix type="matrix" values="0 0 0 0 0 0 0 0 0 0 0 0 0 0 0 0 0 0 0.05 0"/>
<feBlend mode="normal" in2="BackgroundImageFix" result="effect1_dropShadow_175_2620"/>
<feBlend mode="normal" in="SourceGraphic" in2="effect1_dropShadow_175_2620" result="shape"/>
</filter>
<filter id="filter3_d_175_2620" x="56.9336" y="51.3623" width="19.5195" height="16.3623" filterUnits="userSpaceOnUse" color-interpolation-filters="sRGB">
<feFlood flood-opacity="0" result="BackgroundImageFix"/>
<feColorMatrix in="SourceAlpha" type="matrix" values="0 0 0 0 0 0 0 0 0 0 0 0 0 0 0 0 0 0 127 0" result="hardAlpha"/>
<feOffset dy="2"/>
<feGaussianBlur stdDeviation="1"/>
<feComposite in2="hardAlpha" operator="out"/>
<feColorMatrix type="matrix" values="0 0 0 0 0 0 0 0 0 0 0 0 0 0 0 0 0 0 0.05 0"/>
<feBlend mode="normal" in2="BackgroundImageFix" result="effect1_dropShadow_175_2620"/>
<feBlend mode="normal" in="SourceGraphic" in2="effect1_dropShadow_175_2620" result="shape"/>
</filter>
</defs>
</svg>
