<svg width="167" height="21" viewBox="0 0 167 21" fill="none" xmlns="http://www.w3.org/2000/svg">
<path d="M11.1924 8.26953C11.1924 7.25977 10.8164 6.75488 10.0645 6.75488C9.74219 6.75488 9.2946 6.87305 8.72168 7.10938L7.29297 7.7002V11.9004C9.89258 10.9336 11.1924 9.72331 11.1924 8.26953ZM17.5732 8.45215C17.5732 10.7438 16.4417 12.5628 14.1787 13.9092L18.8408 20H10.3545L7.33594 15.0264V20H0.321289V2.84473C4.86165 2.52246 7.83724 2.36133 9.24805 2.36133C10.6589 2.36133 11.7331 2.44727 12.4707 2.61914C14.5046 3.08464 15.9583 4.08008 16.832 5.60547C17.319 6.47917 17.5661 7.42806 17.5732 8.45215ZM29.2285 10.4502C29.0853 10.3786 28.8991 10.3428 28.6699 10.3428C28.4479 10.3428 28.2008 10.4108 27.9287 10.5469C27.6566 10.6758 27.388 10.8548 27.123 11.084C26.5645 11.571 26.0954 12.1618 25.7158 12.8564C25.3363 13.5511 25.1465 14.1921 25.1465 14.7793C25.1465 15.3594 25.3685 15.7497 25.8125 15.9502C25.9701 16.0218 26.1634 16.0576 26.3926 16.0576C26.6217 16.0576 26.8617 15.9896 27.1123 15.8535C27.363 15.7103 27.6136 15.5205 27.8643 15.2842C28.387 14.79 28.8454 14.1921 29.2393 13.4902C29.6331 12.7812 29.8301 12.1475 29.8301 11.5889C29.8301 11.0303 29.6296 10.6507 29.2285 10.4502ZM27.1445 20.3975C25.0964 20.3975 23.3311 19.7493 21.8486 18.4531C20.266 17.0781 19.4746 15.3486 19.4746 13.2646C19.4746 11.1735 20.2158 9.46549 21.6982 8.14062C23.1807 6.80859 25.0104 6.14258 27.1875 6.14258C29.3646 6.14258 31.1943 6.79427 32.6768 8.09766C34.1592 9.39388 34.904 11.1305 34.9111 13.3076C34.9183 14.7041 34.5638 15.9395 33.8477 17.0137C33.1315 18.0879 32.1755 18.9186 30.9795 19.5059C29.7835 20.0931 28.5052 20.3903 27.1445 20.3975ZM43.376 12.8672C43.376 15.2161 43.9453 16.3906 45.084 16.3906C45.6569 16.3906 45.9899 16.1113 46.083 15.5527C46.1117 15.3809 46.126 15.1911 46.126 14.9834V6.64746H52.5068V20H48.9834L47.4473 17.9053C46.5378 19.1442 45.2236 19.9499 43.5049 20.3223C41.3994 20.7734 39.7021 20.4154 38.4131 19.248C37.4391 18.3672 36.9521 17.2035 36.9521 15.7568V6.64746H43.376V12.8672ZM65.1826 19.0332C63.8219 19.957 62.3789 20.4189 60.8535 20.4189C59.3353 20.4189 58.0999 19.9893 57.1475 19.1299C56.195 18.2633 55.7188 17.0996 55.7188 15.6387V10.0527H54.4941V6.64746H55.7188V3.03809L62.1426 2.38281V6.64746H65.1826V10.0527H62.1426V13.4258C62.1426 14.4355 62.3682 15.1696 62.8193 15.6279C63.2777 16.0791 64.0654 16.3047 65.1826 16.3047V19.0332ZM77.2568 19.0332C75.8962 19.957 74.4531 20.4189 72.9277 20.4189C71.4095 20.4189 70.1742 19.9893 69.2217 19.1299C68.2692 18.2633 67.793 17.0996 67.793 15.6387V10.0527H66.5684V6.64746H67.793V3.03809L74.2168 2.38281V6.64746H77.2568V10.0527H74.2168V13.4258C74.2168 14.4355 74.4424 15.1696 74.8936 15.6279C75.3519 16.0791 76.1396 16.3047 77.2568 16.3047V19.0332ZM87.9668 10.4717C87.9668 9.84147 87.6732 9.52637 87.0859 9.52637C86.4128 9.59082 85.9759 9.93815 85.7754 10.5684C85.6751 10.8691 85.6035 11.2201 85.5605 11.6211C85.5247 12.015 85.4674 12.4375 85.3887 12.8887L87.7412 12.3623L87.9453 10.7188L87.9668 10.4717ZM86.5166 15.3594C86.5166 15.3594 86.3197 15.3594 85.9258 15.3594C85.7396 15.3594 85.5605 15.3522 85.3887 15.3379C85.3887 16.1901 85.8434 16.6556 86.7529 16.7344C87.0036 16.7559 87.2471 16.7666 87.4834 16.7666C88.0921 16.7666 88.8548 16.627 89.7715 16.3477C90.6953 16.0684 91.5225 15.6136 92.2529 14.9834L92.9189 18.3242C91.3219 19.7064 88.9085 20.3975 85.6787 20.3975C83.8239 20.3975 82.2305 19.8568 80.8984 18.7754C79.4518 17.5938 78.7285 15.9574 78.7285 13.8662C78.7285 12.2907 79.1367 10.8763 79.9531 9.62305C80.7122 8.47721 81.7399 7.6071 83.0361 7.0127C84.3324 6.41829 85.7324 6.12109 87.2363 6.12109C89.1842 6.12109 90.6559 6.5472 91.6514 7.39941C92.654 8.25163 93.1517 9.30436 93.1445 10.5576C93.1445 11.8109 92.5465 12.9245 91.3506 13.8984C90.1546 14.8724 88.5433 15.3594 86.5166 15.3594ZM102.651 10.2783C102.078 10.2783 101.792 10.7402 101.792 11.6641V20H95.4111V6.64746H98.9346L100.471 8.73145C101.044 7.93652 101.835 7.30632 102.845 6.84082C103.862 6.37533 104.811 6.14258 105.691 6.14258C107.31 6.14258 108.592 6.57227 109.537 7.43164C110.49 8.29102 110.966 9.44401 110.966 10.8906V20H104.542V13.5547C104.542 11.3704 103.912 10.2783 102.651 10.2783ZM123.577 19.0332C122.216 19.957 120.773 20.4189 119.248 20.4189C117.73 20.4189 116.494 19.9893 115.542 19.1299C114.59 18.2633 114.113 17.0996 114.113 15.6387V10.0527H112.889V6.64746H114.113V3.03809L120.537 2.38281V6.64746H123.577V10.0527H120.537V13.4258C120.537 14.4355 120.763 15.1696 121.214 15.6279C121.672 16.0791 122.46 16.3047 123.577 16.3047V19.0332ZM128.862 0.459961C129.915 0.459961 130.696 0.681966 131.204 1.12598C131.713 1.56283 131.963 2.12142 131.956 2.80176C131.956 3.4821 131.63 4.10872 130.979 4.68164C130.334 5.25456 129.471 5.54102 128.39 5.54102C126.871 5.54102 125.926 5.08268 125.554 4.16602C125.446 3.9082 125.393 3.62174 125.393 3.30664C125.393 2.99154 125.468 2.66211 125.618 2.31836C125.769 1.97461 125.994 1.66667 126.295 1.39453C126.961 0.771484 127.817 0.459961 128.862 0.459961ZM131.773 20H125.554V6.64746H131.773V20ZM143.633 10.4502C143.49 10.3786 143.303 10.3428 143.074 10.3428C142.852 10.3428 142.605 10.4108 142.333 10.5469C142.061 10.6758 141.792 10.8548 141.527 11.084C140.969 11.571 140.5 12.1618 140.12 12.8564C139.741 13.5511 139.551 14.1921 139.551 14.7793C139.551 15.3594 139.773 15.7497 140.217 15.9502C140.374 16.0218 140.568 16.0576 140.797 16.0576C141.026 16.0576 141.266 15.9896 141.517 15.8535C141.767 15.7103 142.018 15.5205 142.269 15.2842C142.791 14.79 143.25 14.1921 143.644 13.4902C144.037 12.7812 144.234 12.1475 144.234 11.5889C144.234 11.0303 144.034 10.6507 143.633 10.4502ZM141.549 20.3975C139.501 20.3975 137.735 19.7493 136.253 18.4531C134.67 17.0781 133.879 15.3486 133.879 13.2646C133.879 11.1735 134.62 9.46549 136.103 8.14062C137.585 6.80859 139.415 6.14258 141.592 6.14258C143.769 6.14258 145.599 6.79427 147.081 8.09766C148.563 9.39388 149.308 11.1305 149.315 13.3076C149.323 14.7041 148.968 15.9395 148.252 17.0137C147.536 18.0879 146.58 18.9186 145.384 19.5059C144.188 20.0931 142.91 20.3903 141.549 20.3975ZM158.683 10.2783C158.11 10.2783 157.823 10.7402 157.823 11.6641V20H151.442V6.64746H154.966L156.502 8.73145C157.075 7.93652 157.866 7.30632 158.876 6.84082C159.893 6.37533 160.842 6.14258 161.723 6.14258C163.341 6.14258 164.623 6.57227 165.568 7.43164C166.521 8.29102 166.997 9.44401 166.997 10.8906V20H160.573V13.5547C160.573 11.3704 159.943 10.2783 158.683 10.2783Z" fill="#FFB800"/>
</svg>
