<svg width="24" height="24" viewBox="0 0 24 24" fill="none" xmlns="http://www.w3.org/2000/svg">
<path fillRule="evenodd" clipRule="evenodd" d="M4.82997 3.92852C4.31577 4.46703 4 5.19664 4 6V18C4 19.6569 5.34315 21 7 21H17C18.2133 21 19.2584 20.2797 19.731 19.2434L18.5 17.9783V18C18.5 18.8284 17.8284 19.5 17 19.5H7C6.17157 19.5 5.5 18.8284 5.5 18V6C5.5 5.61827 5.6426 5.26984 5.87743 5.00507L4.82997 3.92852ZM18.5 15.8273V6C18.5 5.17157 17.8284 4.5 17 4.5H7.47886L6.14085 3.12483C6.41303 3.04362 6.70142 3 7 3H17C18.6569 3 20 4.34315 20 6V17.369L18.5 15.8273Z" fill="#D2D2D2"/>
<path fillRule="evenodd" clipRule="evenodd" d="M2.47698 1.96246C2.77386 1.6736 3.24869 1.68011 3.53754 1.97698L21.5375 20.477C21.8264 20.7739 21.8199 21.2487 21.523 21.5375C21.2261 21.8264 20.7513 21.8199 20.4625 21.523L2.46246 3.02302C2.1736 2.72614 2.18011 2.25131 2.47698 1.96246Z" fill="#B9B8B8"/>
</svg>
