<svg width="18" height="18" viewBox="0 0 18 18" fill="none" xmlns="http://www.w3.org/2000/svg">
<path d="M5.32949 15.2346C5.26183 15.3062 5.20893 15.3904 5.17382 15.4824C5.13871 15.5745 5.12207 15.6725 5.12486 15.771C5.12764 15.8695 5.1498 15.9665 5.19006 16.0564C5.23032 16.1463 5.28789 16.2274 5.35949 16.2951C5.4311 16.3627 5.51533 16.4156 5.60737 16.4507C5.69942 16.4858 5.79748 16.5025 5.89596 16.4997C5.99443 16.4969 6.0914 16.4748 6.18131 16.4345C6.27123 16.3942 6.35233 16.3367 6.41999 16.2651L12.795 9.51506C12.9266 9.37581 13 9.19145 13 8.99981C13 8.80818 12.9266 8.62382 12.795 8.48456L6.41999 1.73381C6.35278 1.66064 6.27169 1.60156 6.18145 1.55999C6.0912 1.51842 5.99359 1.4952 5.8943 1.49167C5.795 1.48814 5.696 1.50438 5.60303 1.53944C5.51006 1.5745 5.42499 1.62768 5.35275 1.69589C5.2805 1.76411 5.22254 1.846 5.18221 1.93681C5.14189 2.02762 5.12001 2.12553 5.11785 2.22487C5.11568 2.3242 5.13328 2.42298 5.16961 2.51545C5.20595 2.60793 5.26029 2.69227 5.32949 2.76356L11.2185 8.99981L5.32949 15.2346Z" fill="#ADADAD"/>
</svg>
