<svg width="20" height="20" viewBox="0 0 20 20" fill="none" xmlns="http://www.w3.org/2000/svg">
<path d="M5.28243 3.07206C5.19221 2.9925 5.12168 2.89891 5.07487 2.79664C5.02805 2.69436 5.00587 2.5854 5.00958 2.47599C5.0133 2.36657 5.04284 2.25883 5.09652 2.15893C5.15019 2.05902 5.22696 1.9689 5.32243 1.89372C5.4179 1.81854 5.53021 1.75977 5.65294 1.72075C5.77567 1.68174 5.90641 1.66325 6.03772 1.66635C6.16902 1.66944 6.2983 1.69406 6.41819 1.73879C6.53808 1.78353 6.64621 1.8475 6.73643 1.92706L15.2364 9.42706C15.412 9.58178 15.5098 9.78663 15.5098 9.99956C15.5098 10.2125 15.412 10.4173 15.2364 10.5721L6.73643 18.0729C6.64681 18.1542 6.53869 18.2198 6.41837 18.266C6.29804 18.3122 6.1679 18.338 6.03551 18.3419C5.90311 18.3459 5.7711 18.3278 5.64715 18.2889C5.52319 18.2499 5.40976 18.1908 5.31344 18.115C5.21711 18.0392 5.13983 17.9482 5.08606 17.8473C5.03229 17.7464 5.00312 17.6376 5.00024 17.5273C4.99735 17.4169 5.02081 17.3072 5.06926 17.2044C5.1177 17.1016 5.19016 17.0079 5.28243 16.9287L13.1344 9.99956L5.28243 3.07206Z" fill="#6B6B6B"/>
</svg>
