<svg width="24" height="24" viewBox="0 0 24 24" fill="none" xmlns="http://www.w3.org/2000/svg">
<rect x="3" y="17" width="5" height="1.5" rx="0.75" fill="#ADADAD"/>
<rect x="11" y="17" width="10" height="1.5" rx="0.75" fill="#ADADAD"/>
<rect x="7" y="5" width="14" height="1.5" rx="0.75" fill="#ADADAD"/>
<rect x="3" y="11" width="12" height="1.5" rx="0.75" fill="#ADADAD"/>
<rect width="3" height="1.5" rx="0.75" transform="matrix(-1 0 0 1 21 11)" fill="#ADADAD"/>
<path d="M11.25 17.5C11.25 18.4665 10.4665 19.25 9.5 19.25C8.5335 19.25 7.75 18.4665 7.75 17.5C7.75 16.5335 8.5335 15.75 9.5 15.75C10.4665 15.75 11.25 16.5335 11.25 17.5Z" stroke="#ADADAD" stroke-width="1.5" stroke-linecap="round" stroke-linejoin="round"/>
<path d="M7.25 5.5C7.25 6.4665 6.4665 7.25 5.5 7.25C4.5335 7.25 3.75 6.4665 3.75 5.5C3.75 4.5335 4.5335 3.75 5.5 3.75C6.4665 3.75 7.25 4.5335 7.25 5.5Z" stroke="#ADADAD" stroke-width="1.5" stroke-linecap="round" stroke-linejoin="round"/>
<path d="M18.25 11.5C18.25 12.4665 17.4665 13.25 16.5 13.25C15.5335 13.25 14.75 12.4665 14.75 11.5C14.75 10.5335 15.5335 9.75 16.5 9.75C17.4665 9.75 18.25 10.5335 18.25 11.5Z" stroke="#ADADAD" stroke-width="1.5" stroke-linecap="round" stroke-linejoin="round"/>
</svg>
