<svg width="24" height="24" viewBox="0 0 24 24" fill="none" xmlns="http://www.w3.org/2000/svg">
<path d="M20.6032 9.02252L20.5992 9.01541L20.595 9.00839L18.9539 6.24807C18.6424 5.70444 18.0309 5.58509 17.5782 5.7252L17.5523 5.73322L17.527 5.74309L15.8531 6.3971C15.5979 6.22867 15.3303 6.07457 15.0467 5.93855L14.7983 4.23353L14.7969 4.22425L14.7953 4.21501C14.6976 3.64467 14.2054 3.25 13.6449 3.25H10.3551C9.77539 3.25 9.3077 3.66362 9.21322 4.21501L9.21164 4.22425L9.21029 4.23353L8.96177 5.93915C8.67746 6.07612 8.40904 6.23143 8.15651 6.39752L6.48155 5.74309L6.4702 5.73866L6.45871 5.73459C5.96103 5.55856 5.3535 5.72589 5.05422 6.24891L3.42128 9.00986L3.42016 9.01177C3.14476 9.48056 3.21032 10.1393 3.72844 10.5067L5.10591 11.5495C5.09107 11.6965 5.08166 11.8486 5.08166 12C5.08166 12.1423 5.08626 12.2922 5.09718 12.4441L3.69999 13.5019C3.23748 13.8518 3.12303 14.4933 3.39683 14.9775L3.40085 14.9846L3.40502 14.9916L5.04615 17.7519C5.35765 18.2956 5.96911 18.4149 6.42179 18.2748L6.44771 18.2668L6.47298 18.2569L8.14688 17.6029C8.40211 17.7713 8.6697 17.9254 8.95329 18.0615L9.20172 19.7665L9.20531 19.7911L9.21052 19.8154C9.32198 20.3358 9.77047 20.75 10.3551 20.75H13.6449C14.1962 20.75 14.7096 20.3597 14.7904 19.7617L15.0381 18.062C15.3214 17.9269 15.5909 17.7732 15.8468 17.6038L17.5185 18.2569L17.5298 18.2613L17.5413 18.2654C18.0387 18.4413 18.6458 18.2743 18.9452 17.752L20.5864 14.9916L20.5913 14.9834L20.5959 14.9752C20.8712 14.4842 20.7707 13.854 20.2875 13.4988L18.9045 12.4414C18.9138 12.297 18.9183 12.1502 18.9183 12C18.9183 11.8544 18.9138 11.7054 18.903 11.5557L20.3 10.4981C20.7625 10.1482 20.877 9.50674 20.6032 9.02252ZM12 14.25C10.6982 14.25 9.66583 13.2164 9.66583 12C9.66583 10.7836 10.6982 9.75 12 9.75C13.3018 9.75 14.3342 10.7836 14.3342 12C14.3342 13.2164 13.3018 14.25 12 14.25Z" stroke="#ADADAD" stroke-width="1.5"/>
</svg>
